<svg width="21" height="22" viewBox="0 0 21 22" fill="none" xmlns="http://www.w3.org/2000/svg">
<path d="M6.53386 21.0209C6.08074 21.0209 5.70332 20.8648 5.4016 20.5527C5.09989 20.2406 4.94903 19.8539 4.94903 19.3926C4.94903 18.9314 5.10208 18.547 5.40816 18.2395C5.71424 17.932 6.09368 17.7783 6.54649 17.7783C6.99927 17.7783 7.38147 17.9343 7.69308 18.2464C8.00467 18.5585 8.16047 18.9452 8.16047 19.4065C8.16047 19.8678 8.00457 20.2521 7.69277 20.5596C7.38098 20.8671 6.99467 21.0209 6.53386 21.0209ZM17.1456 21.0209C16.6924 21.0209 16.315 20.8648 16.0133 20.5527C15.7116 20.2406 15.5607 19.8539 15.5607 19.3926C15.5607 18.9314 15.7138 18.547 16.0199 18.2395C16.3259 17.932 16.7054 17.7783 17.1582 17.7783C17.611 17.7783 17.9932 17.9343 18.3048 18.2464C18.6164 18.5585 18.7722 18.9452 18.7722 19.4065C18.7722 19.8678 18.6163 20.2521 18.3045 20.5596C17.9927 20.8671 17.6064 21.0209 17.1456 21.0209ZM4.80941 3.21463L7.93707 9.78364H15.3653C15.5328 9.78364 15.6864 9.74171 15.826 9.65785C15.9657 9.57399 16.0727 9.45752 16.1472 9.30844L19.0794 3.99732C19.1911 3.79233 19.2004 3.61063 19.1073 3.45223C19.0142 3.29383 18.8559 3.21463 18.6325 3.21463H4.80941ZM4.30675 2.23626H19.0235C19.5171 2.23626 19.8871 2.43659 20.1337 2.83726C20.3803 3.23792 20.3919 3.65256 20.1684 4.08118L16.995 9.87519C16.8383 10.1327 16.6257 10.3449 16.3572 10.5118C16.0887 10.6786 15.8065 10.762 15.5106 10.762H7.40648L6.06606 13.1939C5.93574 13.4176 5.93574 13.6598 6.06606 13.9207C6.19637 14.1816 6.40116 14.3121 6.68042 14.3121H18.8001V15.2904H6.45701C5.80542 15.2904 5.33999 15.0435 5.06074 14.5497C4.78148 14.0558 4.78148 13.5387 5.06074 12.9983L6.82004 9.8116L2.63122 0.978364H0.592651V0H3.24558L4.30675 2.23626Z" fill="white"/>
</svg>
