<svg width="21" height="22" viewBox="0 0 21 22" fill="none" xmlns="http://www.w3.org/2000/svg">
<path d="M6.53386 21.3061C6.08074 21.3061 5.70332 21.1539 5.4016 20.8497C5.09989 20.5454 4.94903 20.1685 4.94903 19.7188C4.94903 19.2692 5.10208 18.8945 5.40816 18.5947C5.71424 18.295 6.09368 18.1451 6.54649 18.1451C6.99927 18.1451 7.38147 18.2972 7.69308 18.6015C8.00467 18.9057 8.16047 19.2827 8.16047 19.7323C8.16047 20.182 8.00457 20.5567 7.69277 20.8564C7.38098 21.1562 6.99467 21.3061 6.53386 21.3061ZM17.1456 21.3061C16.6924 21.3061 16.315 21.1539 16.0133 20.8497C15.7116 20.5454 15.5607 20.1685 15.5607 19.7188C15.5607 19.2692 15.7138 18.8945 16.0199 18.5947C16.3259 18.295 16.7054 18.1451 17.1582 18.1451C17.611 18.1451 17.9932 18.2972 18.3048 18.6015C18.6164 18.9057 18.7722 19.2827 18.7722 19.7323C18.7722 20.182 18.6163 20.5567 18.3045 20.8564C17.9927 21.1562 17.6064 21.3061 17.1456 21.3061ZM4.80941 3.94794L7.93707 10.3516H15.3653C15.5328 10.3516 15.6864 10.3108 15.826 10.229C15.9657 10.1473 16.0727 10.0337 16.1472 9.88839L19.0794 4.71093C19.1911 4.5111 19.2004 4.33397 19.1073 4.17956C19.0142 4.02514 18.8559 3.94794 18.6325 3.94794H4.80941ZM4.30675 2.99419H19.0235C19.5171 2.99419 19.8871 3.18948 20.1337 3.58006C20.3803 3.97064 20.3919 4.37485 20.1684 4.79268L16.995 10.4409C16.8383 10.6919 16.6257 10.8988 16.3572 11.0614C16.0887 11.2241 15.8065 11.3054 15.5106 11.3054H7.40648L6.06606 13.6761C5.93574 13.8941 5.93574 14.1303 6.06606 14.3846C6.19637 14.6389 6.40116 14.7661 6.68042 14.7661H18.8001V15.7198H6.45701C5.80542 15.7198 5.33999 15.4791 5.06074 14.9977C4.78148 14.5163 4.78148 14.0122 5.06074 13.4854L6.82004 10.3789L2.63122 1.76795H0.592651V0.814209H3.24558L4.30675 2.99419Z" fill="black"/>
</svg>
