<svg width="24" height="22" viewBox="0 0 24 22" fill="none" xmlns="http://www.w3.org/2000/svg">
<path d="M11.7963 21.0209L10.9861 20.2423C8.76581 18.1852 6.94145 16.4382 5.51302 15.0013C4.08459 13.5645 2.95988 12.3108 2.13889 11.2403C1.3179 10.1698 0.756173 9.20558 0.453704 8.34762C0.151235 7.48967 0 6.6427 0 5.80669C0 4.19042 0.563943 2.81857 1.69183 1.69114C2.81969 0.563713 4.20019 0 5.83333 0C6.93518 0 7.99923 0.308176 9.02546 0.924528C10.0517 1.54088 10.9753 2.4546 11.7963 3.66567C12.6389 2.4546 13.5609 1.54088 14.5625 0.924528C15.564 0.308176 16.6296 0 17.7593 0C19.3924 0 20.7729 0.563713 21.9008 1.69114C23.0286 2.81857 23.5926 4.19042 23.5926 5.80669C23.5926 6.6427 23.4414 7.48967 23.1389 8.34762C22.8364 9.20558 22.2759 10.1675 21.4574 11.2333C20.6389 12.2992 19.5142 13.5529 18.0833 14.9944C16.6524 16.4359 14.8268 18.1852 12.6065 20.2423L11.7963 21.0209ZM11.7963 19.4638C13.9199 17.5271 15.6712 15.871 17.0503 14.4954C18.4295 13.1198 19.5189 11.9171 20.3188 10.8873C21.1186 9.8575 21.6752 8.94477 21.9884 8.14912C22.3017 7.35346 22.4583 6.57136 22.4583 5.80283C22.4583 4.48619 22.01 3.37912 21.1134 2.48163C20.2168 1.58413 19.1012 1.13539 17.7666 1.13539C16.6966 1.13539 15.7095 1.45437 14.8053 2.09235C13.9012 2.73033 13.071 3.6873 12.3148 4.96326H11.2778C10.5 3.6873 9.65383 2.73033 8.73927 2.09235C7.82474 1.45437 6.85366 1.13539 5.82604 1.13539C4.513 1.13539 3.40278 1.58104 2.49537 2.47235C1.58796 3.36368 1.13426 4.48212 1.13426 5.82767C1.13426 6.58373 1.29262 7.35901 1.60935 8.1535C1.92608 8.94801 2.48241 9.85304 3.27833 10.8686C4.07426 11.8841 5.15818 13.084 6.53009 14.4681C7.90201 15.8521 9.65741 17.5174 11.7963 19.4638Z" fill="white"/>
</svg>
