<svg width="24" height="22" viewBox="0 0 24 22" fill="none" xmlns="http://www.w3.org/2000/svg">
<path d="M11.7963 21.3061L10.9861 20.5471C8.76581 18.5417 6.94145 16.8387 5.51302 15.438C4.08459 14.0373 2.95988 12.8152 2.13889 11.7717C1.3179 10.7281 0.756173 9.78812 0.453704 8.95175C0.151235 8.1154 0 7.28974 0 6.47477C0 4.89917 0.563943 3.56185 1.69183 2.46279C2.81969 1.36374 4.20019 0.814209 5.83333 0.814209C6.93518 0.814209 7.99923 1.11463 9.02546 1.71547C10.0517 2.31631 10.9753 3.20703 11.7963 4.38763C12.6389 3.20703 13.5609 2.31631 14.5625 1.71547C15.564 1.11463 16.6296 0.814209 17.7593 0.814209C19.3924 0.814209 20.7729 1.36374 21.9008 2.46279C23.0286 3.56185 23.5926 4.89917 23.5926 6.47477C23.5926 7.28974 23.4414 8.1154 23.1389 8.95175C22.8364 9.78812 22.2759 10.7258 21.4574 11.7649C20.6389 12.8039 19.5142 14.026 18.0833 15.4312C16.6524 16.8365 14.8268 18.5417 12.6065 20.5471L11.7963 21.3061ZM11.7963 19.7881C13.9199 17.9003 15.6712 16.2858 17.0503 14.9449C18.4295 13.6039 19.5189 12.4314 20.3188 11.4275C21.1186 10.4236 21.6752 9.53388 21.9884 8.75825C22.3017 7.98261 22.4583 7.2202 22.4583 6.471C22.4583 5.1875 22.01 4.10829 21.1134 3.23339C20.2168 2.35848 19.1012 1.92102 17.7666 1.92102C16.6966 1.92102 15.7095 2.23198 14.8053 2.85391C13.9012 3.47583 13.071 4.40872 12.3148 5.65256H11.2778C10.5 4.40872 9.65383 3.47583 8.73927 2.85391C7.82474 2.23198 6.85366 1.92102 5.82604 1.92102C4.513 1.92102 3.40278 2.35546 2.49537 3.22434C1.58796 4.09324 1.13426 5.18354 1.13426 6.49523C1.13426 7.23226 1.29262 7.98802 1.60935 8.76252C1.92608 9.53703 2.48241 10.4193 3.27833 11.4093C4.07426 12.3993 5.15818 13.5689 6.53009 14.9182C7.90201 16.2674 9.65741 17.8908 11.7963 19.7881Z" fill="black"/>
</svg>
