<svg width="186" height="60" viewBox="0 0 186 60" fill="none" xmlns="http://www.w3.org/2000/svg">
<path d="M34.222 20.1068C33.9795 20.0931 33.8224 20.2662 33.6447 20.3879C30.1591 22.7637 26.7571 25.2509 23.4968 27.9317C23.0579 28.2934 22.6685 28.6962 22.2996 29.1316C21.6694 29.8738 20.7574 30.1018 19.9155 29.7813C18.6824 29.3133 18.1479 27.9026 18.7883 26.7404C19.1094 26.1593 19.538 25.6485 20.0333 25.2046C20.7848 24.5326 21.5362 23.8624 22.3099 23.2179C25.1414 20.8627 28.0635 18.6206 31.0523 16.4694C31.9455 15.8266 32.8574 15.2095 33.8309 14.6902C34.4423 14.3645 35.0708 14.0816 35.7454 13.9085C36.3978 13.7405 37.0638 13.6943 37.7043 13.8708C39.0108 14.2291 39.769 15.129 40.0372 16.4523C40.2233 17.3693 40.1055 18.2744 39.9227 19.176C39.5863 20.8473 39.0859 22.474 38.6043 24.1058C37.3251 28.4288 36.1313 32.7724 35.2023 37.1863C34.6694 39.7197 34.2664 42.2721 34.1588 44.8638C34.1503 45.0849 34.1434 45.306 34.1451 45.5254C34.1451 45.7191 34.1844 45.8854 34.3808 46.0003C36.0306 46.967 36.2389 48.5097 35.9862 50.1981C35.8427 51.158 35.3628 51.9774 34.6831 52.6682C32.9821 54.3943 30.3503 54.1595 28.9653 52.1557C28.359 51.2797 28.0909 50.2821 27.9457 49.2382C27.7066 47.5018 27.8484 45.774 28.0379 44.0479C28.3915 40.8116 29.0865 37.6422 29.9251 34.5019C29.99 34.262 30.019 34.0134 30.06 33.7683C30.0634 33.7512 30.0224 33.7255 29.9883 33.6895C29.715 33.758 29.5152 33.9654 29.2915 34.1248C26.0295 36.4355 22.6975 38.6381 19.217 40.6025C17.27 41.7012 15.2548 42.6509 13.1337 43.3674C11.7862 43.8233 10.4046 44.0976 8.98877 44.2004C8.01018 44.2724 7.03842 44.1953 6.08204 43.9965C2.54683 43.2628 0.746771 40.6882 0.215635 37.9473C-0.132763 36.1544 -0.0285848 34.3682 0.311274 32.589C0.697244 30.5698 1.3411 28.6259 2.0823 26.713C4.33834 20.8901 7.23653 15.4238 11.0774 10.4854C12.1226 9.14156 13.2088 7.83369 14.3906 6.60809C15.8594 5.08424 17.4357 3.68895 19.2323 2.56106C20.2792 1.90283 21.3893 1.39374 22.6258 1.2189C24.5113 0.953213 26.0295 1.57887 27.1294 3.14557C27.9525 4.31803 28.2548 5.6619 28.3146 7.07433C28.3778 8.56562 28.1694 10.0329 27.8979 11.4916C27.6434 12.8561 27.4402 14.2256 27.3582 15.6141C27.2762 17.0214 26.5248 18.0018 25.3054 18.3755C23.7837 18.8435 22.1784 17.9761 21.7377 16.4368C21.6062 15.9809 21.543 15.5129 21.5311 15.0364C21.4952 13.6137 21.5806 12.1978 21.7941 10.7923C22.0605 9.04043 22.0605 8.74217 21.9068 8.79874C21.2715 9.02843 20.8445 9.55466 20.3646 9.99348C18.6141 11.5945 17.1249 13.4303 15.7313 15.3398C12.0782 20.345 9.37303 25.8337 7.50979 31.7439C7.22458 32.6473 7.02476 33.5729 6.9018 34.5122C6.80787 35.2339 6.77713 35.9572 6.98207 36.672C7.06233 36.948 7.22629 37.0851 7.50125 37.1451C8.26294 37.3097 9.00585 37.1571 9.74363 37.0097C10.5156 36.8554 11.2516 36.5743 11.9775 36.2709C13.576 35.6041 15.1079 34.8071 16.5972 33.9226C19.7344 32.0593 22.7966 30.0761 25.8058 28.0089C26.4787 27.5461 27.1225 27.0387 27.7698 26.5399C28.1933 26.2125 28.5537 25.8268 28.8867 25.3983C29.7577 24.2789 30.9003 23.835 32.3041 24.171C32.4271 24.2001 32.5483 24.2292 32.6713 24.2567C32.8523 24.2978 32.9804 24.2292 33.0368 24.0561C33.4518 22.7997 33.8651 21.5432 34.2715 20.2833C34.2869 20.2371 34.2425 20.1702 34.2254 20.1085L34.222 20.1068Z" fill="white"/>
<path d="M52.3283 24.9628C51.6503 25.0948 51.1892 25.5027 50.6717 25.7821C49.8417 26.2278 49.039 26.7266 48.2192 27.1929C47.9306 27.3574 47.7086 27.5734 47.5242 27.8477C46.7164 29.0475 45.7104 29.2309 44.3032 28.9481C43.1248 28.7116 42.2606 27.6797 42.1547 26.4438C42.083 25.6056 42.3938 24.8617 42.9523 24.2274C43.4151 23.6995 44.0043 23.3275 44.5833 22.9607C47.0904 21.3717 49.6624 19.8907 52.26 18.4543C54.2957 17.3281 56.3793 16.2996 58.4714 15.2917C62.6043 13.2999 66.891 11.7109 71.3126 10.4836C73.3312 9.92311 75.3584 9.40888 77.442 9.16547C78.4701 9.04548 79.5016 9.00777 80.5212 9.28546C82.9446 9.94368 83.8702 12.5629 82.6935 14.5718C82.0497 15.6706 81.1394 16.5019 80.1625 17.2733C77.2575 19.5702 74.3576 21.8757 71.4338 24.1503C68.9096 26.1147 66.3598 28.0465 63.7622 29.9149C61.6872 31.4079 59.5746 32.8426 57.4552 34.2687C57.1683 34.4607 56.8609 34.6236 56.5859 34.8293C56.3502 35.0041 56.3741 35.1652 56.6286 35.2955C56.7294 35.3469 56.8421 35.3795 56.9514 35.4155C60.8914 36.6942 64.5427 38.5849 68.066 40.7378C69.919 41.8691 71.637 43.1753 73.1382 44.7557C73.9546 45.6145 74.5011 46.6104 74.6616 47.7949C74.899 49.5553 74.2586 50.954 72.8701 52.0202C71.2118 53.2938 68.814 53.1172 67.1728 51.7836C66.2095 51.0003 65.2924 50.1552 64.3019 49.4096C62.6453 48.1634 60.8845 47.0766 59.0759 46.0602C57.2691 45.0437 55.4331 44.0958 53.4999 43.345C53.3923 43.3039 53.2881 43.2559 53.1805 43.2147C52.9192 43.1119 52.7228 43.1684 52.6511 43.4616C51.4197 47.0441 50.3984 50.7106 49.9578 51.8008C49.5172 52.8909 48.7111 53.5406 47.5634 53.7686C45.5755 54.1645 43.6508 52.4144 43.8438 50.3883C43.9258 49.5244 44.2588 48.7359 44.5491 47.9354C45.2493 46.0053 45.9786 44.0872 46.5951 42.128C46.6224 42.0406 46.648 41.9514 46.6771 41.864C46.7642 41.5966 46.6771 41.4132 46.4107 41.3206C46.0418 41.1921 45.6694 41.0704 45.3023 40.9384C44.1187 40.5116 43.1982 39.7694 42.7593 38.5678C42.083 36.7148 42.5971 35.0075 44.2041 33.8676C44.8224 33.4305 45.485 33.05 46.1511 32.6866C47.2816 32.0695 48.4225 31.4696 49.577 30.8988C50.1508 30.6142 50.5112 30.2131 50.7229 29.5995C51.1653 28.3139 51.6622 27.0454 52.1387 25.7719C52.2258 25.5387 52.3556 25.3176 52.3283 24.9645V24.9628ZM69.1675 17.5115C68.7662 17.4824 68.4485 17.6161 68.1274 17.7206C65.4632 18.5948 62.8776 19.6696 60.3209 20.8215C59.8803 21.0203 59.6173 21.2774 59.4824 21.7351C59.2177 22.6402 58.2203 25.0194 58.5192 25.2388C58.7395 25.3999 65.6272 20.3621 68.7611 17.9898C68.9011 17.8835 69.089 17.8115 69.1675 17.5132V17.5115Z" fill="white"/>
<path d="M97.2734 0C97.3998 0.0548518 97.5228 0.114846 97.6526 0.161127C99.2545 0.737071 100.127 2.25921 99.6593 4.05046C99.1691 5.93085 98.8258 7.83867 98.5679 9.75676C98.3476 11.3972 98.2298 13.0547 98.0795 14.7071C97.7499 18.2999 97.8285 21.8962 97.8404 25.4924C97.8438 26.6631 97.9924 27.8356 98.0693 29.0063C98.0898 29.3286 98.0898 29.6525 98.1068 29.9748C98.1188 30.2045 98.1171 30.4393 98.1666 30.6622C98.2554 31.0667 98.3955 31.1318 98.7387 30.9141C99.9803 30.1222 101.232 29.344 102.446 28.5109C104.629 27.0128 106.822 25.5301 109.081 24.1519C109.829 23.696 110.6 23.3189 111.539 23.3994C112.963 23.5211 114.155 24.7244 114.258 26.1609C114.324 27.1002 113.991 27.8784 113.445 28.5915C112.12 30.3176 111.08 32.2169 110.08 34.1418C109.819 34.6423 109.718 35.1446 109.8 35.736C110.038 37.4244 109.442 38.3723 108.024 39.1316C106.817 39.7778 105.242 39.5721 104.238 38.602C103.609 37.9934 103.283 37.1998 103.217 36.3153C103.201 36.1079 103.22 35.8988 103.203 35.6931C103.167 35.2749 103.037 35.2029 102.675 35.4137C101.98 35.8199 101.294 36.2399 100.604 36.6564C100.288 36.8467 99.9752 37.0387 99.661 37.2341C99.0837 37.5906 99.082 37.5923 99.2101 38.2883C99.3911 39.2636 99.567 40.2407 99.7669 41.2108C100.091 42.793 100.426 44.3717 100.817 45.9384C100.928 46.3806 101.119 46.7269 101.49 47.0217C102.178 47.5719 102.595 48.3279 102.756 49.1866C103.107 51.0687 103.446 52.9526 103.731 54.8449C103.859 55.69 103.794 56.5402 103.463 57.363C102.832 58.928 101.343 59.9033 99.6627 59.9942C97.6116 60.1056 96.0301 58.6023 95.4033 57.1453C94.7458 55.6146 94.2967 54.0153 93.9602 52.3869C93.2549 48.9758 92.5393 45.5681 92.015 42.1228C91.9194 41.492 91.8101 41.4388 91.1833 41.6342C89.7453 42.0816 88.2919 42.3919 86.7737 42.181C86.3587 42.1228 86.2664 42.4022 86.1947 42.7107C85.8497 44.1934 85.4757 45.671 85.1666 47.1606C84.4869 50.4362 83.8396 53.7188 83.177 56.9962C83.0574 57.5858 82.9003 58.1652 82.651 58.7137C82.2342 59.6256 81.4196 60.1141 80.4854 59.9496C79.4846 59.7747 78.9757 59.2588 78.7144 58.2509C78.6751 58.1001 78.67 57.9286 78.6922 57.7727C79.0987 55.0369 79.3975 52.2858 79.8194 49.5517C80.2617 46.6772 80.7826 43.818 81.3837 40.9743C81.4948 40.4498 81.4042 40.1207 80.9226 39.8293C79.8552 39.1848 78.8937 38.3791 78.0227 37.4998C76.6701 36.1353 75.5532 34.5823 74.9196 32.7328C74.7693 32.2957 74.6771 31.8449 74.6224 31.3838C74.5063 30.3982 74.8308 29.6011 75.6506 29.0509C76.2927 28.6206 77.3789 28.7389 78.103 29.3457C78.8562 29.9765 79.4351 30.7564 79.5974 31.7626C79.6588 32.1466 79.8023 32.4723 80.0482 32.7517C80.6904 33.4802 81.406 34.1298 82.2001 34.6869C82.6646 35.0126 82.7346 34.9852 82.873 34.4127C83.2863 32.7088 83.7645 31.0221 84.2444 29.3354C85.0385 26.538 85.9727 23.7868 86.9342 21.0442C88.49 16.603 90.3789 12.2885 91.8989 7.83352C92.2797 6.71763 92.5632 5.57431 92.816 4.42757C93.0004 3.58765 93.2788 2.78373 93.6169 2.00038C93.9688 1.18446 94.5597 0.587943 95.3982 0.260546C95.6117 0.176554 95.8235 0.0891342 96.037 0.00514236H97.2785L97.2734 0ZM90.4899 28.2812C90.2149 28.4149 90.2098 28.6961 90.1347 28.924C89.6599 30.369 89.1885 31.8175 88.7377 33.2693C88.4303 34.2601 88.1416 35.256 87.8752 36.2588C87.7471 36.7387 87.8718 36.8467 88.3602 36.7507C89.0195 36.6222 89.6326 36.353 90.2372 36.0719C91.074 35.6828 91.1526 35.5405 91.0415 34.6303C90.8076 32.7088 90.6761 30.7804 90.647 28.8452C90.6436 28.6515 90.7102 28.4269 90.4916 28.2795L90.4899 28.2812Z" fill="white"/>
<path d="M116.131 45.6624C116.148 44.01 116.35 42.6404 116.514 41.2691C116.594 40.6057 116.54 40.4514 115.95 40.2955C113.802 39.7281 112.458 36.9478 113.855 34.6971C114.659 33.4013 115.727 32.3677 116.864 31.394C117.422 30.9158 118.034 30.4993 118.626 30.0605C119.101 29.7091 119.455 29.2822 119.629 28.6994C120.01 27.4173 120.479 26.1643 120.93 24.9061C121.491 23.3428 122.112 21.8035 122.73 20.2626C122.85 19.9626 122.978 19.666 123.091 19.3626C123.159 19.1809 123.159 18.9941 123.009 18.8467C122.85 18.6907 122.664 18.773 122.488 18.8124C122.324 18.8484 122.196 18.9427 122.09 19.0712C121.798 19.4261 121.395 19.6215 120.975 19.726C119.12 20.1803 117.322 20.8385 115.452 21.2293C114.637 21.399 113.875 21.363 113.115 20.9619C112.036 20.3911 111.273 18.4919 112.171 17.1583C112.682 16.4006 113.389 15.9155 114.167 15.5042C115.798 14.6402 117.508 13.9615 119.233 13.3169C121.651 12.4153 124.136 11.7417 126.648 11.164C126.848 11.1177 127.044 11.0423 127.229 10.9515C127.567 10.7852 127.939 10.6721 128.293 10.6892C129.345 10.7389 130.342 10.4372 131.362 10.2915C133.432 9.99669 135.496 9.69501 137.58 9.4996C139.365 9.33161 141.151 9.26134 142.943 9.2202C143.954 9.1962 144.963 9.20648 145.965 9.26134C148.083 9.37618 150.186 9.64016 152.098 10.6703C153.391 11.3663 154.267 12.4256 154.722 13.8329C155.157 15.1819 154.836 16.4315 154.221 17.6365C153.62 18.8175 152.664 19.6798 151.624 20.458C149.333 22.1704 146.918 23.6805 144.413 25.0569C142.336 26.1985 140.234 27.2922 138.121 28.3635C136.892 28.9874 135.664 29.6165 134.444 30.2627C130.969 32.102 127.488 33.9361 124.194 36.0993C123.868 36.3136 123.673 36.5758 123.579 36.9684C123.077 39.0802 122.666 41.2074 122.401 43.3603C122.206 44.9442 122.192 46.5297 122.527 48.1033C122.606 48.4684 122.765 48.7941 122.94 49.1232C123.492 50.1499 123.661 51.187 123.077 52.2874C122.293 53.7616 120.297 54.2947 118.917 53.3673C118.307 52.9577 117.844 52.4297 117.533 51.7681C116.859 50.3385 116.42 48.8438 116.276 47.2599C116.22 46.6394 116.109 46.0258 116.138 45.6658L116.131 45.6624ZM144.177 16.2652C143.824 16.1401 143.571 16.1744 143.322 16.1709C141.187 16.1315 139.061 16.2772 136.933 16.4212C134.825 16.5635 132.738 16.8583 130.644 17.1103C130.096 17.1771 129.78 17.4017 129.596 17.9313C128.865 20.0174 128.103 22.0932 127.359 24.1759C127.301 24.3404 127.184 24.5084 127.306 24.7295C127.567 24.7741 127.767 24.5958 127.982 24.4896C130.356 23.3291 132.711 22.1309 135.102 21.0048C137.7 19.7809 140.273 18.5124 142.811 17.1703C143.26 16.932 143.769 16.7469 144.179 16.2652H144.177Z" fill="white"/>
<path d="M184.646 33.3738C185.515 34.08 185.924 35.0588 185.999 36.0941C186.018 37.6008 184.942 39.0887 183.572 39.5772C182.853 39.8326 182.101 39.8737 181.36 39.9697C176.459 40.6005 171.597 41.4353 166.823 42.7398C163.484 43.6517 164.902 43.3637 161.565 44.2842C160.258 44.6441 158.945 44.9801 157.635 45.3332C155.951 45.7857 154.272 46.2554 152.587 46.6977C150.947 47.1262 149.303 47.5701 147.613 47.7227C145.844 47.8821 144.059 46.9411 143.624 44.9801C143.24 43.2437 144.218 41.4713 145.974 40.9022C149.405 39.7898 152.836 38.6756 156.322 37.7397C160.436 36.6341 158.807 36.9306 162.924 35.8353C166.902 34.776 171.062 33.876 175.981 33.1167C177.758 32.923 179.529 32.6607 181.306 32.4499C182.539 32.3042 183.683 32.5939 184.648 33.3755L184.646 33.3738ZM149.777 27.1053C148.394 27.0779 147.427 26.2294 146.975 24.8735C146.637 23.8639 147.364 22.16 148.251 21.6372C150.215 20.4802 159.558 16.7314 164.473 14.7036C166.125 14.0214 167.756 13.286 169.411 12.6141C170.365 12.2267 171.337 11.8668 172.357 11.6748C173.566 11.4451 174.843 12.1119 175.342 13.2226C175.863 14.3779 175.525 15.6858 174.49 16.4743C173.904 16.92 173.284 17.2868 172.524 17.3759C171.839 17.4565 171.231 17.7959 170.618 18.0804C167.899 19.342 165.12 20.4631 162.359 21.6235C162.178 21.7007 162.002 21.7898 161.814 21.8772C161.869 21.9372 161.898 21.9989 161.927 21.9989C163.865 21.9355 165.795 22.1669 167.732 22.1738C169.617 22.1806 171.496 22.3417 173.376 22.4343C174.556 22.4926 178.573 22.7257 179.383 22.9074C180.684 23.1988 181.418 24.0867 181.475 25.3432C181.534 26.6836 180.923 27.6247 179.642 28.0583C178.638 28.3977 177.576 28.4989 176.537 28.6806C174.679 29.0062 162.277 32.1276 157.082 34.404C156.469 34.6405 155.85 34.8548 155.205 34.9697C153.365 35.2988 151.827 34.1143 152.151 31.9579C152.293 31.0169 152.937 30.4529 153.808 30.165C154.909 29.8016 155.978 29.3542 157.051 28.9171C158.731 28.2332 160.436 27.6195 162.161 27.059C162.513 26.9441 162.866 26.8327 163.162 26.5568C162.386 26.6493 161.607 26.591 160.853 26.7025C159.954 26.8344 159.047 26.8602 158.149 26.9253C155.365 27.1258 152.571 27.1618 149.779 27.107L149.777 27.1053Z" fill="white"/>
</svg>
