<svg width="30" height="22" viewBox="0 0 30 22" fill="none" xmlns="http://www.w3.org/2000/svg">
<path d="M0 21.3061V19.0044C0 18.2617 0.183071 17.6509 0.549213 17.1721C0.915329 16.6932 1.4547 16.3003 2.16732 15.9934C3.56115 15.4022 4.88992 14.9209 6.15364 14.5497C7.41735 14.1785 9.02421 13.9928 10.9742 13.9928C12.9242 13.9928 14.5246 14.1785 15.7754 14.5497C17.0262 14.9209 18.362 15.4024 19.7828 15.9943C20.4475 16.2938 20.9681 16.6841 21.3447 17.1651C21.7214 17.6461 21.9097 18.2592 21.9097 19.0044V21.3061H0ZM24.8903 21.3061V19.0416C24.8903 18.1259 24.7233 17.2661 24.3891 16.4622C24.055 15.6583 23.5898 14.9713 22.9935 14.4012C23.871 14.5992 24.7226 14.8281 25.5484 15.088C26.3742 15.3478 27.1474 15.6444 27.8679 15.9775C28.4851 16.2821 28.9948 16.71 29.3969 17.2613C29.799 17.8126 30 18.406 30 19.0416V21.3061H24.8903ZM10.9742 9.64946C9.64258 9.64946 8.53871 9.22935 7.66258 8.38914C6.78645 7.54892 6.34839 6.49649 6.34839 5.23184C6.34839 3.96718 6.78645 2.91475 7.66258 2.07453C8.53871 1.23432 9.63613 0.814209 10.9548 0.814209C12.2735 0.814209 13.371 1.23293 14.2471 2.07037C15.1232 2.90779 15.5613 3.95543 15.5613 5.21327C15.5613 6.4903 15.1247 7.54892 14.2514 8.38914C13.3782 9.22935 12.2858 9.64946 10.9742 9.64946ZM22.1032 5.21327C22.1032 6.4903 21.6667 7.54892 20.7938 8.38914C19.9208 9.22935 18.8241 9.64946 17.5037 9.64946C17.4217 9.64946 17.3484 9.64328 17.2839 9.6309C17.2194 9.61853 17.1613 9.59997 17.1097 9.57522C17.5825 8.97692 17.9329 8.3135 18.1611 7.58495C18.3892 6.85642 18.5032 6.07416 18.5032 5.23815C18.5032 4.40216 18.3742 3.63528 18.1161 2.93749C17.8581 2.23968 17.5226 1.54429 17.1097 0.851332C17.1548 0.857519 17.2194 0.852879 17.3032 0.837411C17.3871 0.821943 17.4516 0.814209 17.4968 0.814209C18.8213 0.814209 19.9202 1.23293 20.7934 2.07037C21.6666 2.90779 22.1032 3.95543 22.1032 5.21327ZM1.35484 20.0068H20.5548V19.0044C20.5548 18.6085 20.4603 18.266 20.2713 17.9771C20.0823 17.6882 19.7252 17.4119 19.2 17.1483C17.9097 16.5296 16.6452 16.0655 15.4065 15.7562C14.1677 15.4468 12.6839 15.2921 10.9548 15.2921C9.22581 15.2921 7.74194 15.4468 6.50323 15.7562C5.26452 16.0655 4.0129 16.5296 2.74839 17.1483C2.22323 17.4119 1.85968 17.6882 1.65774 17.9771C1.45581 18.266 1.35484 18.6085 1.35484 19.0044V20.0068ZM10.9435 8.35016C11.8543 8.35016 12.6258 8.0506 13.2581 7.45149C13.8903 6.85238 14.2065 6.1161 14.2065 5.24268C14.2065 4.36925 13.8887 3.62936 13.2533 3.02302C12.6178 2.41668 11.8447 2.11351 10.9339 2.11351C10.0232 2.11351 9.25703 2.41822 8.63551 3.02763C8.01399 3.63704 7.70323 4.37845 7.70323 5.25188C7.70323 6.12531 8.01559 6.86005 8.64031 7.45609C9.26503 8.05214 10.0328 8.35016 10.9435 8.35016Z" fill="black"/>
</svg>
