<svg width="30" height="22" viewBox="0 0 30 22" fill="none" xmlns="http://www.w3.org/2000/svg">
<path d="M0 21.0209V18.6598C0 17.8979 0.183071 17.2713 0.549213 16.7801C0.915329 16.2889 1.4547 15.8859 2.16732 15.5711C3.56115 14.9646 4.88992 14.4709 6.15364 14.0901C7.41735 13.7093 9.02421 13.5188 10.9742 13.5188C12.9242 13.5188 14.5246 13.7093 15.7754 14.0901C17.0262 14.4709 18.362 14.9648 19.7828 15.5719C20.4475 15.8792 20.9681 16.2796 21.3447 16.773C21.7214 17.2664 21.9097 17.8953 21.9097 18.6598V21.0209H0ZM24.8903 21.0209V18.6979C24.8903 17.7586 24.7233 16.8766 24.3891 16.0519C24.055 15.2273 23.5898 14.5226 22.9935 13.9377C23.871 14.1408 24.7226 14.3757 25.5484 14.6422C26.3742 14.9088 27.1474 15.213 27.8679 15.5548C28.4851 15.8672 28.9948 16.3061 29.3969 16.8717C29.799 17.4372 30 18.046 30 18.6979V21.0209H24.8903ZM10.9742 9.06334C9.64258 9.06334 8.53871 8.63239 7.66258 7.77048C6.78645 6.90857 6.34839 5.82897 6.34839 4.53167C6.34839 3.23437 6.78645 2.15476 7.66258 1.29286C8.53871 0.430953 9.63613 0 10.9548 0C12.2735 0 13.371 0.429532 14.2471 1.28859C15.1232 2.14763 15.5613 3.22231 15.5613 4.51263C15.5613 5.82262 15.1247 6.90857 14.2514 7.77048C13.3782 8.63239 12.2858 9.06334 10.9742 9.06334ZM22.1032 4.51263C22.1032 5.82262 21.6667 6.90857 20.7938 7.77048C19.9208 8.63239 18.8241 9.06334 17.5037 9.06334C17.4217 9.06334 17.3484 9.05699 17.2839 9.0443C17.2194 9.0316 17.1613 9.01256 17.1097 8.98718C17.5825 8.37343 17.9329 7.69288 18.1611 6.94553C18.3892 6.19819 18.5032 5.39573 18.5032 4.53814C18.5032 3.68058 18.3742 2.8939 18.1161 2.1781C17.8581 1.46227 17.5226 0.748931 17.1097 0.0380813C17.1548 0.0444281 17.2194 0.039668 17.3032 0.0238008C17.3871 0.0079336 17.4516 0 17.4968 0C18.8213 0 19.9202 0.429532 20.7934 1.28859C21.6666 2.14763 22.1032 3.22231 22.1032 4.51263ZM1.35484 19.688H20.5548V18.6598C20.5548 18.2536 20.4603 17.9023 20.2713 17.606C20.0823 17.3096 19.7252 17.0262 19.2 16.7558C17.9097 16.1211 16.6452 15.6451 15.4065 15.3277C14.1677 15.0104 12.6839 14.8517 10.9548 14.8517C9.22581 14.8517 7.74194 15.0104 6.50323 15.3277C5.26452 15.6451 4.0129 16.1211 2.74839 16.7558C2.22323 17.0262 1.85968 17.3096 1.65774 17.606C1.45581 17.9023 1.35484 18.2536 1.35484 18.6598V19.688ZM10.9435 7.7305C11.8543 7.7305 12.6258 7.4232 13.2581 6.80862C13.8903 6.19404 14.2065 5.43877 14.2065 4.54279C14.2065 3.64681 13.8887 2.88783 13.2533 2.26583C12.6178 1.64384 11.8447 1.33284 10.9339 1.33284C10.0232 1.33284 9.25703 1.64541 8.63551 2.27056C8.01399 2.8957 7.70323 3.65626 7.70323 4.55223C7.70323 5.44821 8.01559 6.20191 8.64031 6.81335C9.26503 7.42478 10.0328 7.7305 10.9435 7.7305Z" fill="white"/>
</svg>
