<svg width="21" height="22" viewBox="0 0 21 22" fill="none" xmlns="http://www.w3.org/2000/svg">
<path d="M20.2081 21.3061L12.1312 13.4127C11.485 13.9714 10.7242 14.3897 9.84906 14.6675C8.97388 14.9453 8.1344 15.0842 7.33062 15.0842C5.25595 15.0842 3.51552 14.3997 2.10931 13.0308C0.703104 11.6618 0 9.96964 0 7.95426C0 5.93885 0.700391 4.24499 2.10117 2.87268C3.50197 1.50037 5.22582 0.814209 7.27272 0.814209C9.31961 0.814209 11.0581 1.49918 12.4883 2.86912C13.9184 4.23904 14.6335 5.93022 14.6335 7.94265C14.6335 8.80343 14.4804 9.64655 14.1742 10.472C13.868 11.2975 13.4404 12.0094 12.8914 12.6079L21 20.5012L20.2081 21.3061ZM7.30091 14.0008C9.06586 14.0008 10.5444 13.4251 11.7366 12.2738C12.9288 11.1225 13.5249 9.68095 13.5249 7.94921C13.5249 6.21747 12.9297 4.77595 11.7394 3.62463C10.5491 2.47328 9.07052 1.89761 7.30369 1.89761C5.53688 1.89761 4.06266 2.47328 2.88102 3.62463C1.69941 4.77595 1.1086 6.21747 1.1086 7.94921C1.1086 9.68095 1.69941 11.1225 2.88102 12.2738C4.06266 13.4251 5.53595 14.0008 7.30091 14.0008Z" fill="black"/>
</svg>
