<svg width="21" height="22" viewBox="0 0 21 22" fill="none" xmlns="http://www.w3.org/2000/svg">
<path d="M20.2081 21.0209L12.1312 12.9237C11.485 13.4969 10.7242 13.926 9.84906 14.2109C8.97388 14.4959 8.1344 14.6384 7.33062 14.6384C5.25595 14.6384 3.51552 13.9362 2.10931 12.532C0.703104 11.1276 0 9.39178 0 7.32437C0 5.25694 0.700391 3.51935 2.10117 2.11161C3.50197 0.703871 5.22582 0 7.27272 0C9.31961 0 11.0581 0.702654 12.4883 2.10796C13.9184 3.51325 14.6335 5.24808 14.6335 7.31246C14.6335 8.19547 14.4804 9.06035 14.1742 9.90711C13.868 10.7539 13.4404 11.4842 12.8914 12.0981L21 20.1953L20.2081 21.0209ZM7.30091 13.527C9.06586 13.527 10.5444 12.9365 11.7366 11.7554C12.9288 10.5744 13.5249 9.09564 13.5249 7.3192C13.5249 5.54275 12.9297 4.06401 11.7394 2.88297C10.5491 1.70191 9.07052 1.11137 7.30369 1.11137C5.53688 1.11137 4.06266 1.70191 2.88102 2.88297C1.69941 4.06401 1.1086 5.54275 1.1086 7.3192C1.1086 9.09564 1.69941 10.5744 2.88102 11.7554C4.06266 12.9365 5.53595 13.527 7.30091 13.527Z" fill="white"/>
</svg>
